<?xml version="1.0" encoding="iso-8859-1"?>
<!-- Generator: Adobe Illustrator 16.0.0, SVG Export Plug-In . SVG Version: 6.00 Build 0)  -->
<!DOCTYPE svg PUBLIC "-//W3C//DTD SVG 1.1//EN" "http://www.w3.org/Graphics/SVG/1.1/DTD/svg11.dtd">
<svg version="1.1" id="Capa_1" xmlns="http://www.w3.org/2000/svg" xmlns:xlink="http://www.w3.org/1999/xlink" x="0px" y="0px"
	 width="530.061px" height="530.061px" viewBox="0 0 530.061 530.061" style="enable-background:new 0 0 530.061 530.061;"
	 xml:space="preserve">
<g>
	<g>
		<path d="M110.181,195.46c4.9,19.2,17.3,34.1,32.1,39.2c17.4,57.1,62.1,116.4,122.5,116.4c60.4,0,105.099-59.3,122.5-116.4
			c14.9-5.1,27.4-20.1,32.1-39.2c6.801-27.4-3.898-53-24.398-59.2c0-1.1,0-2.2,0.199-3.3c1.1-5.9,7.5-11.3,7.5-17.5
			c0-6.1-6.4-11.6-7.5-17.5c-1.199-6,2.699-13.4,0.4-19c-2.201-5.5-10.201-8.3-13.5-13.5c-3.201-5.1-2.1-13.4-6.201-18
			c-4-4.4-12.398-4.5-17-8.5c-4.5-3.9-6-12.1-11.199-15.5c-5-3.2-13.1-1-18.699-3.6c-5.4-2.5-8.801-10.3-14.602-12.1
			c-5.6-1.9-13,2.1-19,0.9c-5.899-1.2-10.799-8-17-8.6c-6-0.7-12.299,4.9-18.399,4.9c-6.2,0-12.5-5.5-18.4-4.9
			c-6.1,0.7-11.2,7.4-17,8.6c-6,1.3-13.4-2.8-19-0.9c-5.9,2-9.3,9.6-14.6,12.1c-5.5,2.7-13.7,0.4-18.7,3.6
			c-5.2,3.3-6.6,11.6-11.2,15.5c-4.6,4-13.1,4-17,8.5c-4.1,4.5-3,12.9-6.2,18c-3.2,5.2-11.2,7.8-13.5,13.5c-2.2,5.6,1.7,13,0.4,19
			c-1.1,5.9-7.5,11.3-7.5,17.5c0,6.1,6.4,11.6,7.5,17.5c0.6,2.5,0.1,5.4-0.4,8.2C110.88,151.561,104.38,172.86,110.181,195.46z
			 M399.88,190.46c-3.898,15.5-14,24.6-22,25.6l-6.6,0.9l-1.799,6.5c-14.5,53.201-55.102,107.201-104.601,107.201
			c-49.5,0-90.1-53.801-104.6-107.101l-1.8-6.5l-6.6-0.9c-8-1.1-18.1-10.3-22-25.6c-2.9-11.5-1-23.1,3.9-29.7c2-2.7,4.4-4.6,7.3-5.3
			c0.7-0.1,1.3-0.2,2.2-0.2c0.6,0,1.1,0,1.7,0.1l9.6,0.9l1.4-9.5c9.6-64.7,53.5-108.2,109-108.2c55.501,0,99.399,43.5,109.001,108.2
			l1.398,9.5l9.602-0.9c1.299-0.1,2.799-0.1,3.898,0.1c1.102,0.2,2.102,0.8,3.102,1.4C399.78,161.661,403.38,176.161,399.88,190.46z
			"/>
		<path d="M314.181,75.161c-1.699-2.1-3.6-4.4-6.301-6.4c-2.398-2.3-5.299-4.5-8.6-6.5c-3.199-2.2-7-3.8-10.8-5.5
			c-4-1.3-8.2-2.9-12.601-3.5c-4.399-1-8.899-1.1-13.5-1.3c-4.5,0.2-9.1,0.3-13.5,1.4c-4.4,0.7-8.6,2.2-12.6,3.5
			c-3.9,1.8-7.6,3.3-10.8,5.5c-3.3,2-6.2,4.2-8.6,6.4c-2.5,2-4.6,4.4-6.3,6.5c-1.9,2-3.1,3.9-4,5.5c-1.9,3.2-2.9,5.2-2.9,5.2
			s2.1-0.8,5.4-2.3c3.4-1.8,8-3.3,13.5-5.3c2.8-1,5.7-1.9,8.8-2.7c3-1,6.4-1.4,9.7-2.3c3.4-0.3,6.8-1.2,10.4-1.3
			c3.5-0.4,7.2-0.4,10.7-0.6c3.5,0.2,7.199,0.1,10.699,0.6c3.5,0.2,7,1,10.4,1.3c3.301,0.9,6.7,1.2,9.7,2.3
			c3.101,0.8,6.101,1.7,8.8,2.7c5.4,1.9,10.301,3.8,13.5,5.3c3.301,1.5,5.4,2.3,5.4,2.3s-0.9-2-2.9-5.2
			C317.28,79.061,315.88,77.061,314.181,75.161z"/>
		<path d="M373.38,318.761c-11.699,20-25.299,36.9-43.299,46.1c-37.101,19-64.701,34.4-64.701,34.4l-0.1-0.101v-0.399l-0.4,0.2
			l-0.4-0.2v0.399l-0.1,0.101c0,0-27.6-15.4-64.7-34.4c-18-9.199-31.6-26.1-43.3-46.1c-54.9,22.3-93.2,73.7-93.2,118.399
			c0,47.2,0,92.9,0,92.9h201.5h0.8H466.88c0,0,0-45.7,0-92.9C466.581,392.36,428.28,341.061,373.38,318.761z"/>
	</g>
</g>
<g>
</g>
<g>
</g>
<g>
</g>
<g>
</g>
<g>
</g>
<g>
</g>
<g>
</g>
<g>
</g>
<g>
</g>
<g>
</g>
<g>
</g>
<g>
</g>
<g>
</g>
<g>
</g>
<g>
</g>
</svg>
